HIERARCHY
ROOT Hips
{
	OFFSET -0.001795 -0.223333 0.028219
	CHANNELS 6 Xposition Yposition Zposition Zrotation Yrotation Xrotation 
	JOINT LeftUpLeg
	{
		OFFSET 0.069520 -0.091406 -0.006815
		CHANNELS 3 Zrotation Yrotation Xrotation
		JOINT LeftLeg
		{
			OFFSET 0.034277 -0.375199 -0.004496
			CHANNELS 3 Zrotation Yrotation Xrotation
			JOINT LeftFoot
			{
				OFFSET -0.013596 -0.397961 -0.043693
				CHANNELS 3 Zrotation Yrotation Xrotation
				JOINT LeftToe
				{
					OFFSET 0.026358 -0.055791 0.119288
					CHANNELS 3 Zrotation Yrotation Xrotation
					End Site
					{
						OFFSET 0.000000 0.000000 0.000000
					}
				}
			}
		}
	}
	JOINT RightUpLeg
	{
		OFFSET -0.067670 -0.090522 -0.004320
		CHANNELS 3 Zrotation Yrotation Xrotation
		JOINT RightLeg
		{
			OFFSET -0.038290 -0.382569 -0.008850
			CHANNELS 3 Zrotation Yrotation Xrotation
			JOINT RightFoot
			{
				OFFSET 0.015774 -0.398415 -0.042312
				CHANNELS 3 Zrotation Yrotation Xrotation
				JOINT RightToe
				{
					OFFSET -0.025372 -0.048144 0.123348
					CHANNELS 3 Zrotation Yrotation Xrotation
					End Site
					{
						OFFSET 0.000000 0.000000 0.000000
					}
				}
			}
		}
	}
	JOINT Spine
	{
		OFFSET -0.002533 0.108963 -0.026696
		CHANNELS 3 Zrotation Yrotation Xrotation
		JOINT Spine1
		{
			OFFSET 0.005487 0.135180 0.001092
			CHANNELS 3 Zrotation Yrotation Xrotation
			JOINT Spine2
			{
				OFFSET 0.001457 0.052922 0.025425
				CHANNELS 3 Zrotation Yrotation Xrotation
				JOINT Neck
				{
					OFFSET -0.002778 0.213870 -0.042857
					CHANNELS 3 Zrotation Yrotation Xrotation
					JOINT Head
					{
						OFFSET 0.005152 0.064970 0.051349
						CHANNELS 3 Zrotation Yrotation Xrotation
						End Site
						{
							OFFSET 0.000000 0.000000 0.000000
						}
					}
				}
				JOINT LeftShoulder
				{
					OFFSET 0.078845 0.121749 -0.034090
					CHANNELS 3 Zrotation Yrotation Xrotation
					JOINT LeftArm
					{
						OFFSET 0.090977 0.030469 -0.008868
						CHANNELS 3 Zrotation Yrotation Xrotation
						JOINT LeftForeArm
						{
							OFFSET 0.259612 -0.012772 -0.027456
							CHANNELS 3 Zrotation Yrotation Xrotation
							JOINT LeftHand
							{
								OFFSET 0.249234 0.008986 -0.001171
								CHANNELS 3 Zrotation Yrotation Xrotation
								End Site
								{
									OFFSET 0.000000 0.000000 0.000000
								}
							}
						}
					}
				}
				JOINT RightShoulder
				{
					OFFSET -0.081759 0.118833 -0.038615
					CHANNELS 3 Zrotation Yrotation Xrotation
					JOINT RightArm
					{
						OFFSET -0.096012 0.032551 -0.009143
						CHANNELS 3 Zrotation Yrotation Xrotation
						JOINT RightForeArm
						{
							OFFSET -0.253742 -0.013329 -0.021401
							CHANNELS 3 Zrotation Yrotation Xrotation
							JOINT RightHand
							{
								OFFSET -0.255298 0.007772 -0.005559
								CHANNELS 3 Zrotation Yrotation Xrotation
								End Site
								{
									OFFSET 0.000000 0.000000 0.000000
								}
							}
						}
					}
				}
			}
		}
	}
}
MOTION
Frames: 13
Frame Time: 0.05000000
0.000000 0.849986 0.000000 2.099138 5.380515 15.395314 3.289767 -1.054218 -11.616115 -9.875308 0.469044 -2.854830 9.078239 16.128573 -24.993889 0.000000 0.000000 0.000000 -8.442726 1.438781 -13.991899 11.088481 -1.141424 1.540800 -5.530073 -12.069137 -28.685815 0.000000 0.000000 0.000000 -4.502653 0.565280 -21.875600 1.746737 0.137649 -21.003661 -3.251724 -6.812590 38.325564 2.450222 0.767937 -38.309996 0.000000 0.000000 0.000000 18.829154 9.989705 -1.871923 -90.062340 -5.381979 -3.406323 -20.204336 -24.281016 5.880785 0.000000 0.000000 0.000000 -24.182601 -4.798393 0.901228 94.495599 10.171567 -2.141426 16.775941 22.486414 4.204506 0.000000 0.000000 0.000000 
0.000468 0.850376 -0.212488 2.063347 5.451077 15.134947 3.331283 -1.019113 -11.030180 -9.712985 0.404763 -3.890513 9.132295 16.315156 -24.309438 0.000000 0.000000 0.000000 -9.135686 1.407036 -13.444833 12.377187 -1.286034 1.221565 -5.376275 -11.174072 -28.145651 0.000000 0.000000 0.000000 -4.716710 0.539491 -21.878354 1.940831 0.093218 -21.188865 -3.233517 -7.199910 38.854859 2.460408 0.724177 -38.453742 0.000000 0.000000 0.000000 18.908773 10.130764 -1.971062 -90.378801 -4.960924 -3.515138 -20.921834 -24.860043 6.209477 0.000000 0.000000 0.000000 -24.552826 -4.355606 1.051746 94.569010 11.222981 -1.438067 16.159555 22.850012 4.163413 0.000000 0.000000 0.000000 
-0.000789 0.850273 -0.422461 1.933026 6.294408 15.271977 4.202732 -1.083310 -11.689663 -10.439933 0.442428 -3.238989 8.895430 15.227975 -24.467380 0.000000 0.000000 0.000000 -9.032517 1.413451 -13.907449 12.416685 -1.354184 1.706164 -5.483890 -12.857419 -27.871929 0.000000 0.000000 0.000000 -4.565906 0.546263 -22.103032 1.838050 0.119726 -21.025263 -3.360116 -7.134821 38.893465 2.453910 0.790170 -38.604775 0.000000 0.000000 0.000000 19.259590 9.421781 -1.714247 -90.472452 -5.522569 -3.319686 -20.175590 -25.244375 6.111676 0.000000 0.000000 0.000000 -24.430649 -4.660466 0.901193 94.801415 10.519815 -1.685910 15.975668 23.434624 4.251017 0.000000 0.000000 0.000000 
-0.001904 0.850524 -0.632139 1.939234 7.688450 14.351384 4.219925 -0.990044 -10.078638 -10.696431 0.352200 -4.311114 9.263394 15.848336 -24.147586 0.000000 0.000000 0.000000 -9.325659 1.306862 -12.169229 12.724204 -1.407679 0.954046 -5.261590 -11.894025 -28.138644 0.000000 0.000000 0.000000 -4.813798 0.496906 -20.932798 1.927736 0.111875 -21.266292 -3.599714 -7.973801 39.160688 2.466263 0.764999 -38.870281 0.000000 0.000000 0.000000 19.130800 9.661564 -1.820686 -90.579529 -5.402711 -3.343917 -20.331076 -25.225219 6.140229 0.000000 0.000000 0.000000 -24.573730 -4.314061 0.994563 94.590927 11.296613 -1.235249 15.796793 23.516338 4.227077 0.000000 0.000000 0.000000 
-0.002595 0.850715 -0.842345 2.091065 8.074874 14.150834 4.033415 -0.961316 -9.714186 -10.816628 0.310876 -4.837743 9.211393 15.525155 -23.631399 0.000000 0.000000 0.000000 -9.369200 1.284136 -12.085137 12.218051 -1.384664 1.303939 -5.142570 -11.138967 -28.364424 0.000000 0.000000 0.000000 -4.679076 0.497855 -20.590061 1.869357 0.124633 -21.098867 -3.689815 -7.846131 39.004526 2.546231 0.767146 -38.868289 0.000000 0.000000 0.000000 19.295324 9.226938 -1.669300 -90.938959 -5.334415 -3.602603 -19.761763 -25.386690 6.033253 0.000000 0.000000 0.000000 -24.695848 -4.585317 0.920996 94.818495 10.598803 -1.686867 15.402181 24.263477 4.298886 0.000000 0.000000 0.000000 
-0.004653 0.850469 -1.051714 2.070646 8.632731 14.217288 4.051833 -0.955915 -9.539306 -10.917042 0.271369 -5.165130 9.405395 15.989198 -23.619992 0.000000 0.000000 0.000000 -9.215417 1.279390 -11.926856 11.958364 -1.351876 1.060827 -4.943074 -9.976503 -28.540591 0.000000 0.000000 0.000000 -4.447128 0.512685 -20.592821 1.831395 0.139235 -21.167770 -3.783301 -7.900911 39.046316 2.854756 0.667329 -38.931593 0.000000 0.000000 0.000000 19.327134 9.489171 -1.679139 -91.180772 -5.284600 -3.766315 -19.608792 -25.153613 5.938036 0.000000 0.000000 0.000000 -24.861645 -4.907861 0.854344 95.043460 10.695878 -1.394090 15.569507 23.993659 4.274679 0.000000 0.000000 0.000000 
-0.009355 0.850499 -1.261510 2.049012 8.977695 14.430373 4.108370 -0.978579 -9.872558 -11.085161 0.262416 -5.093200 9.567348 16.508451 -23.496241 0.000000 0.000000 0.000000 -9.046125 1.295809 -12.221480 11.651018 -1.309925 0.919284 -4.875729 -9.834092 -28.489693 0.000000 0.000000 0.000000 -4.272788 0.528791 -20.771721 1.798376 0.150020 -21.185078 -3.812064 -7.788486 38.988383 2.896543 0.689329 -38.981348 0.000000 0.000000 0.000000 19.173974 9.249370 -1.592791 -91.137850 -5.318440 -3.952077 -19.617132 -25.293691 5.981467 0.000000 0.000000 0.000000 -24.958126 -4.840811 0.810571 95.160045 10.545894 -1.253003 15.984325 24.153789 4.392876 0.000000 0.000000 0.000000 
-0.014664 0.850191 -1.470539 1.983246 9.389126 14.293741 3.988834 -0.959878 -9.643746 -10.651253 0.231140 -5.308716 9.709792 16.719666 -23.648549 0.000000 0.000000 0.000000 -9.131234 1.280140 -12.171933 11.733878 -1.358070 1.239606 -4.805081 -9.485734 -28.797414 0.000000 0.000000 0.000000 -4.167450 0.530901 -20.596228 1.791561 0.154662 -21.209171 -3.867374 -7.923154 39.077480 2.848142 0.707901 -38.972268 0.000000 0.000000 0.000000 19.211138 9.262591 -1.585642 -91.320929 -5.095921 -4.196478 -19.995108 -25.232180 6.055766 0.000000 0.000000 0.000000 -25.125344 -4.831098 0.814392 95.058741 10.465947 -1.320863 16.532293 24.718589 4.632346 0.000000 0.000000 0.000000 
-0.021764 0.850233 -1.680145 1.909663 9.908177 14.224539 3.893075 -0.936593 -9.249750 -10.334733 0.164721 -5.992854 9.721893 16.450599 -23.561846 0.000000 0.000000 0.000000 -8.982026 1.273914 -12.263763 11.534031 -1.344462 1.171147 -4.683930 -8.914744 -28.790809 0.000000 0.000000 0.000000 -4.143012 0.529175 -20.463433 1.785840 0.159439 -21.211103 -3.969283 -8.189909 39.045592 2.826961 0.716867 -39.053879 0.000000 0.000000 0.000000 19.300353 9.240280 -1.575004 -91.393308 -5.069409 -4.190905 -20.185244 -25.295495 6.112106 0.000000 0.000000 0.000000 -25.100569 -4.855763 0.817476 94.841651 10.382905 -1.450111 16.910982 25.415829 4.873216 0.000000 0.000000 0.000000 
-0.029780 0.850008 -1.889434 1.795069 10.396095 14.406597 3.902588 -0.937827 -9.157496 -10.143807 0.099239 -6.652326 9.967102 17.095331 -23.444093 0.000000 0.000000 0.000000 -8.934648 1.287058 -12.531670 11.505400 -1.349544 1.105360 -4.504260 -8.010346 -28.727487 0.000000 0.000000 0.000000 -4.093171 0.533297 -20.813211 1.851852 0.143742 -21.149646 -4.045944 -8.540539 39.212166 2.983084 0.631783 -39.024430 0.000000 0.000000 0.000000 19.195720 9.576384 -1.670979 -91.572483 -4.909199 -4.225329 -20.371212 -25.235796 6.147507 0.000000 0.000000 0.000000 -25.230241 -4.934433 0.838045 94.635211 10.487963 -1.435908 16.927880 25.326633 4.860575 0.000000 0.000000 0.000000 
-0.038205 0.849581 -2.098869 1.866300 10.659545 15.007919 3.785158 -0.968608 -9.721902 -10.013915 0.077893 -6.667174 9.917178 16.830546 -23.476145 0.000000 0.000000 0.000000 -9.096970 1.330100 -13.136930 11.439106 -1.336517 1.037602 -4.410629 -7.893612 -28.573916 0.000000 0.000000 0.000000 -4.140534 0.539953 -21.612868 1.874186 0.138765 -21.115086 -4.117192 -8.709653 39.318632 2.975890 0.638840 -39.070353 0.000000 0.000000 0.000000 19.307009 9.679088 -1.680381 -91.836530 -4.744206 -4.296016 -20.502282 -25.429510 6.236066 0.000000 0.000000 0.000000 -25.409588 -4.930674 0.855177 94.763313 10.397224 -1.444813 17.015551 25.162399 4.847532 0.000000 0.000000 0.000000 
-0.046155 0.848995 -2.307461 1.973453 10.681387 14.961977 3.589290 -0.934953 -9.263785 -9.853824 0.057042 -7.008908 9.768347 16.153750 -23.757490 0.000000 0.000000 0.000000 -9.328368 1.315309 -12.771339 11.541250 -1.326958 0.624637 -4.380859 -7.628439 -28.666893 0.000000 0.000000 0.000000 -4.158813 0.536653 -21.544919 1.877535 0.139631 -21.185570 -4.122020 -8.618622 39.490419 2.911664 0.673022 -39.058224 0.000000 0.000000 0.000000 19.371099 9.744005 -1.673564 -91.830446 -4.800760 -4.325286 -20.810875 -25.628649 6.372983 0.000000 0.000000 0.000000 -25.483911 -5.078415 0.813713 95.091424 10.350190 -1.387240 16.923714 25.152035 4.827707 0.000000 0.000000 0.000000 
-0.055132 0.848559 -2.515314 2.006871 10.551249 14.499777 3.508205 -0.879059 -8.367633 -9.627911 0.046748 -7.449078 9.632928 15.558486 -24.004056 0.000000 0.000000 0.000000 -9.509464 1.272915 -12.132779 11.613400 -1.332636 0.504254 -4.389789 -7.262066 -28.897489 0.000000 0.000000 0.000000 -4.116642 0.531250 -20.926602 1.884904 0.138986 -21.274811 -4.077045 -8.469169 39.500835 2.682621 0.762914 -38.968274 0.000000 0.000000 0.000000 19.291230 9.889527 -1.697679 -91.648880 -4.703555 -4.519227 -21.309999 -25.883287 6.572968 0.000000 0.000000 0.000000 -25.475363 -5.145230 0.788055 95.290225 10.235414 -1.493752 16.598574 25.333446 4.794481 0.000000 0.000000 0.000000 
